<svg id="Layer_1" data-name="Layer 1" xmlns="http://www.w3.org/2000/svg" viewBox="0 0 36 36"><defs><style>.cls-1{fill:#fff;}</style></defs><path d="M35.47,18A17.47,17.47,0,1,1,18,.53,17.47,17.47,0,0,1,35.47,18Z"/><path class="cls-1" d="M8.77,9.64A4.78,4.78,0,0,1,13,11.78V9.84h4.21V23.57H13V21.62a4.84,4.84,0,0,1-4.25,2.15c-3.35,0-6-2.76-6-7.09S5.4,9.64,8.77,9.64ZM10,13.31a3.06,3.06,0,0,0-3,3.37,3.1,3.1,0,0,0,3,3.42c1.6,0,3-1.21,3-3.4A3.06,3.06,0,0,0,10,13.31Z"/><path class="cls-1" d="M27.23,9.64c3.37,0,6.05,2.71,6.05,7s-2.68,7.09-6.05,7.09A4.92,4.92,0,0,1,23,21.65v8.46H18.79V9.84H23v1.94A4.84,4.84,0,0,1,27.23,9.64ZM26,13.31a3.08,3.08,0,0,0-3,3.39,3,3,0,1,0,6,0A3.06,3.06,0,0,0,26,13.31Z"/></svg>